<?xml version="1.0" encoding="UTF-8" standalone="no"?>
<svg
   xmlns:dc="http://purl.org/dc/elements/1.1/"
   xmlns:cc="http://creativecommons.org/ns#"
   xmlns:rdf="http://www.w3.org/1999/02/22-rdf-syntax-ns#"
   xmlns:svg="http://www.w3.org/2000/svg"
   xmlns="http://www.w3.org/2000/svg"
   xmlns:sodipodi="http://sodipodi.sourceforge.net/DTD/sodipodi-0.dtd"
   xmlns:inkscape="http://www.inkscape.org/namespaces/inkscape"
   enable-background="new 0 0 24 24"
   height="24"
   viewBox="0 0 24 24"
   width="24"
   version="1.1"
   id="svg14"
   sodipodi:docname="medicine-pour.svg"
   inkscape:version="1.0.1 (3bc2e813f5, 2020-09-07)">
  <metadata
     id="metadata20">
    <rdf:RDF>
      <cc:Work
         rdf:about="">
        <dc:format>image/svg+xml</dc:format>
        <dc:type
           rdf:resource="http://purl.org/dc/dcmitype/StillImage" />
      </cc:Work>
    </rdf:RDF>
  </metadata>
  <defs
     id="defs18" />
  <sodipodi:namedview
     pagecolor="#ffffff"
     bordercolor="#666666"
     borderopacity="1"
     objecttolerance="10"
     gridtolerance="10"
     guidetolerance="10"
     inkscape:pageopacity="0"
     inkscape:pageshadow="2"
     inkscape:window-width="2560"
     inkscape:window-height="1373"
     id="namedview16"
     showgrid="false"
     inkscape:zoom="21"
     inkscape:cx="4.0693138"
     inkscape:cy="14.446102"
     inkscape:window-x="2391"
     inkscape:window-y="29"
     inkscape:window-maximized="1"
     inkscape:current-layer="svg14"
     inkscape:document-rotation="0" />
  <path
     d="M 12.309901,9.9546071 H 23.801809 V 21.446515 H 12.309901 Z"
     fill="none"
     id="path845"
     style="stroke-width:0.47883" />
  <path
     d="m 13.995722,13.044289 h 3.039644 v 1.013215 h -3.039644 z m 0,6.079287 v -1.013215 h 9.118931 v 1.013215 z m 0,-3.546251 h 6.079287 v 1.013214 h -6.079287 z"
     id="path847"
     style="fill:#18ae47;fill-opacity:1;stroke-width:0.506608" />
  <g
     id="g12"
     transform="matrix(-0.24893075,0.59557297,-0.59557297,-0.24893075,18.201285,4.8053702)">
    <g
       id="g10">
      <rect
         height="2"
         width="12"
         x="6"
         y="3"
         id="rect6"
         style="fill:#ff4b51;fill-opacity:1" />
      <path
         d="M 17,6 H 7 C 5.9,6 5,6.9 5,8 v 11 c 0,1.1 0.9,2 2,2 h 10 c 1.1,0 2,-0.9 2,-2 V 8 C 19,6.9 18.1,6 17,6 Z m -1,9 h -2.5 v 2.5 h -3 V 15 H 8 v -3 h 2.5 V 9.5 h 3 V 12 H 16 Z"
         id="path8"
         style="fill:#ff4b51;fill-opacity:1" />
    </g>
  </g>
</svg>
